<?xml version="1.0" standalone="no"?>
<!DOCTYPE svg PUBLIC "-//W3C//DTD SVG 20010904//EN"
 "http://www.w3.org/TR/2001/REC-SVG-20010904/DTD/svg10.dtd">
<svg version="1.0" xmlns="http://www.w3.org/2000/svg"
 width="500.000000pt" height="500.000000pt" viewBox="0 0 500.000000 500.000000"
 preserveAspectRatio="xMidYMid meet">
<metadata>
Created by potrace 1.14, written by Peter Selinger 2001-2017
</metadata>
<g transform="translate(0.000000,500.000000) scale(0.100000,-0.100000)"
fill="#000000" stroke="none">
<path d="M2404 4416 c-59 -18 -144 -78 -179 -125 -17 -22 -36 -41 -43 -41 -24
0 -319 -94 -382 -122 -25 -10 -54 -23 -65 -28 -278 -121 -456 -236 -609 -394
-215 -221 -394 -540 -441 -786 -2 -14 -9 -45 -16 -70 -26 -107 -32 -167 -32
-320 1 -114 9 -262 17 -300 1 -8 6 -37 10 -65 4 -27 10 -57 13 -65 4 -8 6 -18
5 -21 -1 -4 21 -91 42 -164 16 -58 31 -95 38 -95 4 0 8 -9 8 -20 0 -11 5 -20
10 -20 6 0 10 -6 10 -14 0 -30 112 -220 188 -321 40 -52 120 -141 187 -207 11
-11 52 -46 90 -77 39 -31 72 -58 75 -61 13 -14 118 -87 150 -103 55 -30 70
-47 82 -96 16 -63 102 -148 178 -176 53 -19 81 -20 750 -21 552 -1 704 2 740
12 25 8 45 13 45 13 0 0 13 5 30 11 27 10 125 105 125 121 0 3 7 23 15 43 8
20 14 37 13 39 -5 5 26 34 37 34 15 0 121 65 183 111 148 112 301 266 396 402
84 120 140 218 179 315 35 89 91 265 100 321 3 16 11 54 17 84 7 30 14 107 16
170 2 63 5 140 7 170 2 30 -1 82 -8 115 -7 33 -15 78 -18 100 -30 217 -112
440 -229 622 -24 37 -47 76 -51 86 -3 9 -11 17 -17 17 -5 0 -10 5 -10 11 0 24
-191 230 -300 324 -80 69 -353 225 -480 275 -30 12 -69 28 -87 37 -17 8 -37
16 -45 17 -7 2 -20 6 -28 9 -53 20 -147 49 -220 67 -81 19 -88 23 -135 76 -49
54 -65 66 -135 100 -44 21 -172 26 -226 10z"/>
</g>
</svg>
